<svg xmlns="http://www.w3.org/2000/svg" viewBox="0 0 331.48 68.84">
    <g id="Layer_2" data-name="Layer 2">
        <g id="Layer_1-2" data-name="Layer 1">
            <path fill="#fff" d="M71.4,67.88c-4,0-5.93-1.66-5.93-5a12.75,12.75,0,0,1,.29-2.19,6.72,6.72,0,0,1,6.42-5.42h.42q5.93,0,5.93,5a11.92,11.92,0,0,1-.3,2.19,6.72,6.72,0,0,1-6.41,5.42Z" />
            <path fill="#fff" d="M130.64,51.54a1.35,1.35,0,0,1-.69.56,12.33,12.33,0,0,1-4,.95q-4.8,0-5.36-1.36Q114.9,37.17,112,29.94a1.37,1.37,0,0,0-2.62.33c-.18,1.39-.39,3-.64,4.91a190.43,190.43,0,0,0-2.17,25.56c0,1.35.08,3.06.22,5.15a1.4,1.4,0,0,1-1.44,1.48q-4.35-.16-6-1.3a4.22,4.22,0,0,1-2-3.72q0-.81,2.68-21.8t2.69-29.24v-.4A32.13,32.13,0,0,0,99,6a1.37,1.37,0,0,1,.47-2.18,12.9,12.9,0,0,1,5.46-1.12,9,9,0,0,1,8.17,4.93q2.89,4.93,11.3,27l2.73,7a1.37,1.37,0,0,0,2.4.29h0q18.36-27.16,20-37.93a1.36,1.36,0,0,1,1.44-1.17l.62,0a17.48,17.48,0,0,1,4.13.81,5.89,5.89,0,0,1,3.21,2.08,6.91,6.91,0,0,1,1.24,2.72,28.7,28.7,0,0,1,.24,4.49q0,3.17-2.65,21.27t-2.64,25.36a45.8,45.8,0,0,0,.5,7.63,1.38,1.38,0,0,1-1.79,1.56c-3.24-1.07-5.54-2.4-6.88-4q-2.49-2.93-2.49-8.13,0-3,1.65-15,1-7.31,1.63-12.82a1.37,1.37,0,0,0-2.53-.85c-1.68,2.8-3.65,6-5.91,9.75q-5.89,9.61-7.1,11.42C131.51,50.14,131,50.93,130.64,51.54Z" />
            <path fill="#fff" d="M176,63.78q-4.32,0-7.34-4.25t-3-11.37a33.26,33.26,0,0,1,3.24-14.69q3.6-7.56,10.23-10.44a19.93,19.93,0,0,1,8.2-1.66,14.6,14.6,0,0,1,10.91,4.86q4.65,4.86,4.65,14a29.06,29.06,0,0,1-4.47,16.06,19.2,19.2,0,0,1-11.15,8.57,2.59,2.59,0,0,1-2.12-.28h0c-.46-.32-.69-.64-.69-1a20.26,20.26,0,0,0,8.72-14,28.49,28.49,0,0,1-3.71,7A17.7,17.7,0,0,1,184.82,61,16.85,16.85,0,0,1,176,63.78Zm4.46-5.26q4.7,0,8.36-6.3a24.83,24.83,0,0,0,3.67-12.56q0-13.11-6.77-13.1c-3.21,0-5.83,2.09-7.85,6.3a32.33,32.33,0,0,0-3,14.14Q174.81,58.52,180.42,58.52Z" />
            <path fill="#fff" d="M211.46,59.29a27.56,27.56,0,0,1-.22-4.14q0-2.82,2.41-22.11t2.41-26.49c0-1,0-1.93,0-2.78-.11-3.53,4.5-5.18,6.51-2.29l0,.06c1.32,2,2,4.69,2,8.25q0,3.17-2.09,20.59a247.63,247.63,0,0,0-2.09,28.08c0,.61,0,1.33.05,2.14a3.63,3.63,0,0,1-4.72,3.59,5.43,5.43,0,0,1-3.17-2.13A7.78,7.78,0,0,1,211.46,59.29Z" />
            <path fill="#fff" d="M241.34,50.25a10.7,10.7,0,0,0,1.26,5.51,3.94,3.94,0,0,0,3.56,2.12c2.26,0,4.4-1.32,6.44-4a30.68,30.68,0,0,0,4.9-10.15A41.58,41.58,0,0,0,259.34,32c0-2.35-.06-4.41-.18-6.2a2.79,2.79,0,0,1,2.75-3h0a9.28,9.28,0,0,1,5.54,1.37q1.88,1.36,1.87,4.89,0,1.37-1.72,11.13a93.45,93.45,0,0,0-1.73,15.62,26.94,26.94,0,0,0,.5,5.27,2.78,2.78,0,0,1-4.25,2.9,9.36,9.36,0,0,1-1.94-1.76q-2.52-3.06-2.52-8.82c0-.67.1-2,.29-3.89a21.82,21.82,0,0,1-6.91,11q-5,4.17-9.76,4.17a9.47,9.47,0,0,1-7.7-3.56q-2.92-3.57-2.92-10.12A35.5,35.5,0,0,1,233,38.33a26.93,26.93,0,0,1,7-10.44,15.12,15.12,0,0,1,10.44-4.28h.07a2.46,2.46,0,0,1,1.38,4.44,23.48,23.48,0,0,0-6.27,7.33A30,30,0,0,0,241.34,50.25Z" />
            <path fill="#fff" d="M293.16,62.93a2.25,2.25,0,0,1-1.38,1.33,12.08,12.08,0,0,1-3.79.61c-1.68,0-2.62-.36-2.81-1.08Q284,59.17,282.52,50t-3.06-16.06a43,43,0,0,0-2.65-8.39,2.21,2.21,0,0,1,1.24-3,11.87,11.87,0,0,1,4-.89,5.3,5.3,0,0,1,3.6,1.08A8.72,8.72,0,0,1,287.74,27q.83,3.21,1.19,5.29,1,6.91,1,7.71t.57,6.44v.11a2.21,2.21,0,0,0,4.18.73q7.65-15.62,9.13-23.32a2.21,2.21,0,0,1,3.54-1.27q2.73,2.16,2.73,4.56c0,1.92-1,4.77-3,8.53s-4.49,8.33-7.49,13.68A103.83,103.83,0,0,0,293.16,62.93Z" />
            <path fill="#fff" d="M317.08,52.05a90.13,90.13,0,0,1,1.15-10.94,91.2,91.2,0,0,0,1.15-12.32c0-1.54,0-2.89-.12-4.06a2.66,2.66,0,0,1,2.64-2.85h0q4.19,0,5.8,1.41c1.08.93,1.62,2.53,1.62,4.78q0,1.08-1.76,11.34a106.14,106.14,0,0,0-1.8,16.92c0,1.64,0,3.07.09,4.28a2.67,2.67,0,0,1-3.94,2.53A8.48,8.48,0,0,1,319,60.58C317.73,58.64,317.08,55.79,317.08,52.05Zm9.79-36.22q-7.41,0-7.42-5.18A13.45,13.45,0,0,1,320,7.27a2.65,2.65,0,0,1,2.33-1.94c.62,0,1.19-.08,1.72-.08q7.43,0,7.42,5.18a13.45,13.45,0,0,1-.56,3.39,2.63,2.63,0,0,1-2.32,1.93C328,15.81,327.4,15.83,326.87,15.83Z" />
            <path fill="#fff" d="M33.32,51.43a1.29,1.29,0,0,1-.68.56,12.33,12.33,0,0,1-4,.95q-4.8,0-5.36-1.36Q17.56,37,14.62,29.77A1.35,1.35,0,0,0,12,30.1c-.18,1.41-.4,3.06-.65,5A190.43,190.43,0,0,0,9.21,60.63c0,1.35.08,3.08.22,5.18A1.37,1.37,0,0,1,8,67.26C5.1,67.15,3.09,66.72,2,66a4.22,4.22,0,0,1-2-3.72q0-.81,2.68-21.8T5.37,11.2v-.4a32.57,32.57,0,0,0-3.71-5A1.33,1.33,0,0,1,2,3.72,12.85,12.85,0,0,1,7.61,2.54a9,9,0,0,1,8.17,4.93q2.9,4.94,11.3,27l2.74,7a1.36,1.36,0,0,0,2.37.28l0,0q18.38-27.16,20-37.94A1.35,1.35,0,0,1,53.61,2.7l.63,0a18,18,0,0,1,4.13.8,6,6,0,0,1,3.21,2.09,6.91,6.91,0,0,1,1.24,2.72,28.7,28.7,0,0,1,.24,4.49q0,3.16-2.65,21.27T57.77,59.47a46,46,0,0,0,.5,7.66,1.35,1.35,0,0,1-1.76,1.54q-4.89-1.61-6.91-4-2.49-2.93-2.49-8.13,0-3,1.65-15,1-7.37,1.64-12.9a1.35,1.35,0,0,0-2.5-.84Q45.38,32,42,37.64q-5.89,9.61-7.1,11.42Q33.88,50.52,33.32,51.43Z" />
        </g>
    </g>
</svg>